<?xml version="1.0" encoding="UTF-8"?>
<svg width="32px" height="32px" viewBox="0 0 32 32" version="1.1" xmlns="http://www.w3.org/2000/svg" xmlns:xlink="http://www.w3.org/1999/xlink">
    <!-- Generator: Sketch 56.3 (81716) - https://sketch.com -->
    <title>ava_temp</title>
    <desc>Created with Sketch.</desc>
    <g id="ava_temp" stroke="none" stroke-width="1" fill="none" fill-rule="evenodd">
        <g id="Group" transform="translate(9.000000, 8.000000)" fill="#FFFFFF" fill-rule="nonzero">
            <g id="icons8-change_user_male">
                <path d="M7,0 C4.25,0 2,2.25 2,5 C2,6.515625 2.707031,7.863281 3.78125,8.78125 C1.53125,9.949219 0,12.300781 0,15 L2,15 C2,12.226563 4.226563,10 7,10 C9.773438,10 12,12.226563 12,15 L14,15 C14,12.300781 12.46875,9.949219 10.21875,8.78125 C11.292969,7.863281 12,6.515625 12,5 C12,2.25 9.75,0 7,0 Z M7,2 C8.667969,2 10,3.332031 10,5 C10,6.667969 8.667969,8 7,8 C5.332031,8 4,6.667969 4,5 C4,3.332031 5.332031,2 7,2 Z" id="Shape"></path>
            </g>
        </g>
    </g>
</svg>