<?xml version="1.0" encoding="UTF-8"?>
<svg width="320px" height="160px" viewBox="0 0 320 160" version="1.1" xmlns="http://www.w3.org/2000/svg" xmlns:xlink="http://www.w3.org/1999/xlink">
    <!-- Generator: Sketch 56.3 (81716) - https://sketch.com -->
    <title>logo_about</title>
    <desc>Created with Sketch.</desc>
    <g id="logo_about" stroke="none" stroke-width="1" fill="none" fill-rule="evenodd">
        <path d="M319.979691,-2.84217094e-14 L293.31476,133.00026 C220.164426,168.542078 94.6759967,168.402338 26.6649308,133.00026 L1.13686838e-13,-2.84217094e-14 C83.8644752,35.8241558 236.115216,35.8241558 319.979691,-2.84217094e-14 Z M75.7324443,60.3680978 L70.5959237,89.8246547 L70.2506739,91.8044067 L69.5811548,91.8044067 L69.2388263,89.8406713 L64.0996499,60.3680978 L53.7814605,60.3759748 L53.7814605,114.14961 L61.7596528,114.14961 L61.7920532,98.2596061 L61.1079274,80.2877114 L61.7508888,80.2877114 L67.8121478,114.14961 L72.0199464,114.14961 L78.0809399,80.2877114 L78.7241668,80.2877114 L78.0397755,98.2596061 L78.0397755,114.14961 L86.0503681,114.14961 L86.0503681,60.3759748 L75.7324443,60.3680978 Z M106.947457,60.3680978 L106.732115,104.741288 C106.732115,107.071588 104.599061,107.611703 103.529492,107.611703 C102.325268,107.611703 100.326605,107.071588 100.326605,104.741288 L100.111262,60.3680978 L91.4285194,60.3680978 L92.1465037,102.713069 C92.1465037,110.183148 94.8589184,114.14961 103.529492,114.14961 C112.199801,114.14961 114.912216,110.183148 114.912216,102.713069 L115.6302,60.3680978 L106.947457,60.3680978 Z M129.315542,107.443236 L129.315542,60.3680978 L121.008351,60.3680978 L121.008351,114.14961 L138.487343,114.14961 L138.487343,107.443236 L129.315542,107.443236 Z M211.545044,107.443236 L211.545044,60.3680978 L203.025158,60.3680978 L203.025158,114.14961 L220.50415,114.14961 L220.50415,107.443236 L211.545044,107.443236 Z M239.327679,67.0740142 L239.327679,60.3680978 L221.848687,60.3680978 L221.848687,60.3720366 L221.848687,114.14961 L239.207754,114.14961 L239.207754,107.443694 L230.223304,107.443694 L230.223304,87.3813504 L236.921772,87.3813504 L236.921772,80.6756965 L230.223304,80.6756965 L230.223304,67.0740142 L239.327679,67.0740142 Z M158.65541,60.3680978 L135.798267,60.3680978 L135.798267,66.8366366 L143.022999,66.8366366 L143.022999,114.14961 L151.430422,114.14961 L151.430422,66.8366366 L158.65541,66.8366366 L158.65541,60.3680978 Z M162.689024,114.14961 L170.75625,114.14961 L170.75625,60.3680978 L162.689024,60.3680978 L162.689024,114.14961 Z M190.286373,81.6056516 C190.286373,83.6999166 189.826726,85.6206005 186.358025,85.6206005 L184.839573,85.6206005 L184.839573,67.0705335 L186.984503,67.0705335 C190.701991,67.0705335 190.286373,69.4754588 190.286373,71.5697238 L190.286373,81.6056516 Z M187.812556,60.3720368 L176.134402,60.3680978 L176.134402,114.14961 L184.839573,114.14961 L184.839573,92.3766075 L188.100333,92.3766075 C195.419668,92.3766075 198.991545,88.6696928 198.991545,82.8945109 L198.991545,70.40245 C198.991545,64.6272682 196.350632,60.3720368 187.812556,60.3720368 Z M265.68605,60.3680978 L257.332458,60.3680978 L253.770586,80.3853202 L253.120324,80.3853202 L249.558452,60.3680978 L241.204602,60.3680978 L246.477636,83.5268318 L240.672217,114.14961 L249.334046,114.14961 L252.358116,95.666639 L253.125998,86.8548066 L253.758979,86.8548066 L254.532794,95.666639 L257.500633,114.14961 L266.218435,114.14961 L260.413016,83.5268318 L265.68605,60.3680978 Z" id="Combined-Shape" fill="#FFFFFF"></path>
    </g>
</svg>