<svg width="174" height="74" viewBox="0 0 174 74" fill="none" xmlns="http://www.w3.org/2000/svg">
<mask id="mask0_1_12" style="mask-type:alpha" maskUnits="userSpaceOnUse" x="0" y="0" width="174" height="74">
<path d="M0 0H174V74H0V0Z" fill="white"/>
</mask>
<g mask="url(#mask0_1_12)">
<path fill-rule="evenodd" clip-rule="evenodd" d="M173.999 7C128.395 22.0384 45.6034 22.0384 0 7L14.5002 62.832C51.4832 77.6933 119.721 77.7521 159.499 62.832L174 7H173.999Z" fill="#FF0000"/>
</g>
<path d="M21.4219 26.5781H33.8438C35.7188 26.5781 37.3438 26.776 38.7188 27.1719C40.0938 27.5573 41.2344 28.1198 42.1406 28.8594C43.0469 29.599 43.7188 30.5 44.1562 31.5625C44.6042 32.625 44.8281 33.8281 44.8281 35.1719C44.8281 36.0781 44.7188 36.9427 44.5 37.7656C44.2812 38.5781 43.9427 39.3281 43.4844 40.0156C43.0365 40.7031 42.4688 41.3177 41.7812 41.8594C41.0938 42.3906 40.2865 42.8333 39.3594 43.1875L44.6719 51H38.6094L34.0156 44.0625H33.875L26.375 44.0469V51H21.4219V26.5781ZM33.9688 39.7656C34.9062 39.7656 35.724 39.6562 36.4219 39.4375C37.1302 39.2188 37.7188 38.9115 38.1875 38.5156C38.6667 38.1198 39.0208 37.6406 39.25 37.0781C39.4896 36.5052 39.6094 35.8698 39.6094 35.1719C39.6094 33.8073 39.1406 32.7552 38.2031 32.0156C37.2656 31.2656 35.8542 30.8906 33.9688 30.8906H26.375V39.7656H33.9688ZM50.7031 26.5781H71.5V30.9219H55.6562V35.7969H69.6875V39.875H55.6562V46.6719H71.8281V51H50.7031V26.5781ZM85.6562 26.5781H90.9062L102.719 51H97.5156L95.5625 46.8906H81.2969L79.4062 51H74.1875L85.6562 26.5781ZM93.6094 42.8125L88.3281 31.7188L83.1875 42.8125H93.6094ZM105.031 38.6406C105.031 36.901 105.359 35.2812 106.016 33.7812C106.672 32.2708 107.62 30.9635 108.859 29.8594C110.109 28.7448 111.63 27.8698 113.422 27.2344C115.224 26.599 117.26 26.2812 119.531 26.2812C121.521 26.2812 123.344 26.4844 125 26.8906C126.667 27.2865 128.214 27.8958 129.641 28.7188L127.359 32.4688C126.932 32.1875 126.438 31.9375 125.875 31.7188C125.323 31.5 124.729 31.3177 124.094 31.1719C123.469 31.0156 122.818 30.8958 122.141 30.8125C121.474 30.7292 120.812 30.6875 120.156 30.6875C118.573 30.6875 117.161 30.8854 115.922 31.2812C114.682 31.6667 113.635 32.2135 112.781 32.9219C111.938 33.6198 111.292 34.4583 110.844 35.4375C110.406 36.4062 110.188 37.474 110.188 38.6406C110.188 39.849 110.417 40.9583 110.875 41.9688C111.333 42.9792 111.995 43.8542 112.859 44.5938C113.734 45.3229 114.797 45.8958 116.047 46.3125C117.307 46.7188 118.729 46.9219 120.312 46.9219C121.031 46.9219 121.745 46.8698 122.453 46.7656C123.161 46.6615 123.844 46.5208 124.5 46.3438C125.167 46.1562 125.807 45.9375 126.422 45.6875C127.036 45.4271 127.609 45.1458 128.141 44.8438L130.422 48.5938C129.089 49.4479 127.547 50.1198 125.797 50.6094C124.047 51.0885 122.188 51.3281 120.219 51.3281C117.708 51.3281 115.505 51.0052 113.609 50.3594C111.714 49.7031 110.13 48.8073 108.859 47.6719C107.589 46.526 106.63 45.1823 105.984 43.6406C105.349 42.0885 105.031 40.4219 105.031 38.6406ZM143.25 30.9219H134.234V26.5781H157.219V30.9219H148.203V51H143.25V30.9219Z" fill="white"/>
<path d="M59.1836 59.5605C59.1836 59.0527 59.2754 58.5801 59.459 58.1426C59.6465 57.7012 59.918 57.3203 60.2734 57C60.6328 56.6758 61.0703 56.4219 61.5859 56.2383C62.1055 56.0547 62.6973 55.9629 63.3613 55.9629C63.6504 55.9629 63.9414 55.9805 64.2344 56.0156C64.5273 56.0508 64.8086 56.1016 65.0781 56.168C65.3516 56.2305 65.6074 56.3066 65.8457 56.3965C66.084 56.4824 66.291 56.5781 66.4668 56.6836L65.6641 57.9902C65.2852 57.8145 64.9258 57.6855 64.5859 57.6035C64.25 57.5215 63.9082 57.4805 63.5605 57.4805C63.1621 57.4805 62.8047 57.5332 62.4883 57.6387C62.1719 57.7402 61.9023 57.8848 61.6797 58.0723C61.4609 58.2559 61.293 58.4746 61.1758 58.7285C61.0625 58.9785 61.0059 59.252 61.0059 59.5488C61.0059 59.8457 61.0664 60.1211 61.1875 60.375C61.3125 60.625 61.4863 60.8418 61.709 61.0254C61.9355 61.2051 62.207 61.3477 62.5234 61.4531C62.8438 61.5547 63.1992 61.6055 63.5898 61.6055C64.0195 61.6055 64.4238 61.5449 64.8027 61.4238C65.1855 61.3027 65.541 61.1406 65.8691 60.9375L66.6719 62.2441C66.4648 62.3691 66.2402 62.4863 65.998 62.5957C65.7559 62.7012 65.4961 62.793 65.2188 62.8711C64.9453 62.9492 64.6562 63.0098 64.3516 63.0527C64.0508 63.0996 63.7383 63.123 63.4141 63.123C62.7539 63.123 62.1621 63.0332 61.6387 62.8535C61.1152 62.6738 60.6719 62.4258 60.3086 62.1094C59.9453 61.7891 59.666 61.4121 59.4707 60.9785C59.2793 60.5449 59.1836 60.0723 59.1836 59.5605ZM69.4551 55.1426C69.2832 55.1426 69.127 55.1191 68.9863 55.0723C68.8496 55.0215 68.7324 54.9551 68.6348 54.873C68.5371 54.7871 68.4609 54.6895 68.4062 54.5801C68.3555 54.4668 68.3301 54.3477 68.3301 54.2227C68.3301 54.0938 68.3555 53.9746 68.4062 53.8652C68.4609 53.752 68.5371 53.6543 68.6348 53.5723C68.7324 53.4902 68.8496 53.4258 68.9863 53.3789C69.127 53.3281 69.2832 53.3027 69.4551 53.3027C69.6309 53.3027 69.7871 53.3281 69.9238 53.3789C70.0645 53.4258 70.1836 53.4902 70.2812 53.5723C70.3789 53.6543 70.4531 53.752 70.5039 53.8652C70.5586 53.9746 70.5859 54.0938 70.5859 54.2227C70.5859 54.3477 70.5586 54.4668 70.5039 54.5801C70.4531 54.6895 70.3789 54.7871 70.2812 54.873C70.1836 54.9551 70.0645 55.0215 69.9238 55.0723C69.7871 55.1191 69.6309 55.1426 69.4551 55.1426ZM68.5879 56.0859H70.3223V63H68.5879V56.0859ZM72.5488 56.0859H74.2832V56.6719C74.7441 56.4102 75.1836 56.2266 75.6016 56.1211C76.0234 56.0156 76.4355 55.9629 76.8379 55.9629C77.3652 55.9629 77.8535 56.041 78.3027 56.1973C78.752 56.3496 79.1406 56.5781 79.4688 56.8828C79.7969 57.1875 80.0527 57.5684 80.2363 58.0254C80.4238 58.4785 80.5176 59.0039 80.5176 59.6016V63H78.7891V59.8828C78.7891 59.5039 78.7344 59.166 78.625 58.8691C78.5195 58.5684 78.3652 58.3164 78.1621 58.1133C77.9629 57.9062 77.7188 57.75 77.4297 57.6445C77.1445 57.5352 76.8242 57.4805 76.4688 57.4805C76.2812 57.4805 76.0879 57.5 75.8887 57.5391C75.6934 57.5781 75.5 57.6348 75.3086 57.709C75.1211 57.7793 74.9395 57.8691 74.7637 57.9785C74.5879 58.084 74.4277 58.2051 74.2832 58.3418V63H72.5488V56.0859ZM82.3223 59.5195C82.3223 59.0508 82.418 58.6035 82.6094 58.1777C82.8008 57.748 83.0762 57.3691 83.4355 57.041C83.7949 56.7129 84.2344 56.4512 84.7539 56.2559C85.2773 56.0605 85.8711 55.9629 86.5352 55.9629C87.1953 55.9629 87.7891 56.0625 88.3164 56.2617C88.8477 56.457 89.2969 56.7266 89.6641 57.0703C90.0352 57.4141 90.3184 57.8184 90.5137 58.2832C90.7129 58.748 90.8125 59.2461 90.8125 59.7773C90.8125 59.8438 90.8105 59.916 90.8066 59.9941C90.8066 60.0684 90.8027 60.1367 90.7949 60.1992H84.2559C84.3301 60.4062 84.4492 60.5957 84.6133 60.7676C84.7812 60.9395 84.9902 61.0879 85.2402 61.2129C85.4902 61.3379 85.7793 61.4355 86.1074 61.5059C86.4355 61.5723 86.7988 61.6055 87.1973 61.6055C87.5957 61.6055 87.9922 61.5645 88.3867 61.4824C88.7812 61.3965 89.1582 61.2891 89.5176 61.1602L90.1035 62.4844C89.877 62.5898 89.6465 62.6836 89.4121 62.7656C89.1816 62.8438 88.9395 62.9102 88.6855 62.9648C88.4355 63.0156 88.1719 63.0547 87.8945 63.082C87.6211 63.1094 87.332 63.123 87.0273 63.123C86.25 63.123 85.5684 63.0293 84.9824 62.8418C84.3965 62.6543 83.9062 62.3984 83.5117 62.0742C83.1172 61.75 82.8203 61.3691 82.6211 60.9316C82.4219 60.4941 82.3223 60.0234 82.3223 59.5195ZM88.9727 58.8457C88.9102 58.6543 88.8125 58.4766 88.6797 58.3125C88.5508 58.1445 88.3887 58 88.1934 57.8789C87.998 57.7539 87.7715 57.6562 87.5137 57.5859C87.2559 57.5156 86.9727 57.4805 86.6641 57.4805C86.3359 57.4805 86.0371 57.5176 85.7676 57.5918C85.498 57.666 85.2617 57.7656 85.0586 57.8906C84.8555 58.0156 84.6855 58.1602 84.5488 58.3242C84.416 58.4883 84.3184 58.6621 84.2559 58.8457H88.9727ZM92.7285 56.0859H94.4629V56.6719C94.8965 56.4062 95.3184 56.2227 95.7285 56.1211C96.1426 56.0156 96.5469 55.9629 96.9414 55.9629C97.4922 55.9629 97.998 56.0508 98.459 56.2266C98.9199 56.4023 99.3145 56.668 99.6426 57.0234C99.8965 56.8281 100.146 56.6641 100.393 56.5312C100.639 56.3945 100.885 56.2852 101.131 56.2031C101.377 56.1172 101.627 56.0566 101.881 56.0215C102.135 55.9824 102.396 55.9629 102.666 55.9629C103.232 55.9629 103.746 56.041 104.207 56.1973C104.668 56.3496 105.061 56.5781 105.385 56.8828C105.713 57.1875 105.965 57.5684 106.141 58.0254C106.32 58.4785 106.41 59.0039 106.41 59.6016V63H104.682V59.8828C104.682 59.5039 104.627 59.166 104.518 58.8691C104.412 58.5684 104.262 58.3164 104.066 58.1133C103.875 57.9062 103.645 57.75 103.375 57.6445C103.109 57.5352 102.816 57.4805 102.496 57.4805C102.32 57.4805 102.141 57.498 101.957 57.5332C101.773 57.5645 101.594 57.6152 101.418 57.6855C101.246 57.7559 101.084 57.8457 100.932 57.9551C100.779 58.0605 100.646 58.1855 100.533 58.3301V63H98.8047V59.8828C98.8047 59.5039 98.75 59.166 98.6406 58.8691C98.5352 58.5684 98.3848 58.3164 98.1895 58.1133C97.998 57.9062 97.7656 57.75 97.4922 57.6445C97.2227 57.5352 96.9258 57.4805 96.6016 57.4805C96.4023 57.4805 96.2012 57.502 95.998 57.5449C95.7988 57.584 95.6055 57.6406 95.418 57.7148C95.2344 57.7891 95.0605 57.8789 94.8965 57.9844C94.7363 58.0898 94.5918 58.209 94.4629 58.3418V63H92.7285V56.0859ZM108.268 60.8203C108.268 60.4883 108.34 60.1855 108.484 59.9121C108.629 59.6387 108.846 59.4043 109.135 59.209C109.424 59.0098 109.783 58.8574 110.213 58.752C110.646 58.6426 111.15 58.5879 111.725 58.5879C112.15 58.5879 112.598 58.6191 113.066 58.6816C113.539 58.7441 114.025 58.8398 114.525 58.9688C114.506 58.75 114.439 58.5488 114.326 58.3652C114.213 58.1777 114.055 58.0176 113.852 57.8848C113.652 57.748 113.41 57.6426 113.125 57.5684C112.844 57.4941 112.523 57.457 112.164 57.457C111.969 57.457 111.754 57.4688 111.52 57.4922C111.285 57.5156 111.043 57.5508 110.793 57.5977C110.543 57.6445 110.295 57.7031 110.049 57.7734C109.807 57.8438 109.58 57.9277 109.369 58.0254L108.842 56.6016C109.104 56.5078 109.383 56.4219 109.68 56.3438C109.98 56.2656 110.287 56.1992 110.6 56.1445C110.912 56.0859 111.225 56.041 111.537 56.0098C111.85 55.9785 112.152 55.9629 112.445 55.9629C113.738 55.9629 114.699 56.293 115.328 56.9531C115.957 57.6133 116.271 58.625 116.271 59.9883V63H114.537V62.3496C114.357 62.4551 114.16 62.5547 113.945 62.6484C113.734 62.7422 113.504 62.8242 113.254 62.8945C113.004 62.9648 112.734 63.0195 112.445 63.0586C112.16 63.1016 111.857 63.123 111.537 63.123C110.998 63.123 110.523 63.0645 110.113 62.9473C109.707 62.8301 109.367 62.668 109.094 62.4609C108.82 62.2539 108.613 62.0117 108.473 61.7344C108.336 61.4531 108.268 61.1484 108.268 60.8203ZM110.096 60.7617C110.096 60.875 110.125 60.9844 110.184 61.0898C110.242 61.1914 110.336 61.2832 110.465 61.3652C110.594 61.4434 110.758 61.5078 110.957 61.5586C111.16 61.6055 111.404 61.6289 111.689 61.6289C111.994 61.6289 112.289 61.6016 112.574 61.5469C112.859 61.4922 113.125 61.4199 113.371 61.3301C113.617 61.2402 113.84 61.1367 114.039 61.0195C114.238 60.9023 114.404 60.7812 114.537 60.6562V60.3516C114.271 60.2773 114.008 60.2148 113.746 60.1641C113.488 60.1133 113.24 60.0742 113.002 60.0469C112.768 60.0156 112.545 59.9941 112.334 59.9824C112.127 59.9707 111.945 59.9648 111.789 59.9648C111.465 59.9648 111.195 59.9863 110.98 60.0293C110.766 60.0723 110.592 60.1309 110.459 60.2051C110.326 60.2754 110.232 60.3594 110.178 60.457C110.123 60.5547 110.096 60.6562 110.096 60.7617Z" fill="white"/>
</svg>
